<mxfile host="65bd71144e">
    <diagram id="vr6bCUrVFtsS8i8Nqyaq" name="ページ1">
        <mxGraphModel dx="465" dy="332" grid="1" gridSize="10" guides="1" tooltips="1" connect="1" arrows="1" fold="1" page="1" pageScale="1" pageWidth="827" pageHeight="1169" background="#ffffff" math="0" shadow="0">
            <root>
                <mxCell id="0"/>
                <mxCell id="1" parent="0"/>
                <mxCell id="2" value="&lt;svg xmlns=&quot;http://www.w3.org/2000/svg&quot; width=&quot;1em&quot; height=&quot;1em&quot; viewBox=&quot;0 0 24 24&quot; style=&quot;font-size: 40px;&quot;&gt;&lt;path fill=&quot;currentColor&quot; d=&quot;M18 15h-2v2h2m0-6h-2v2h2m2 6h-8v-2h2v-2h-2v-2h2v-2h-2V9h8M10 7H8V5h2m0 6H8V9h2m0 6H8v-2h2m0 6H8v-2h2M6 7H4V5h2m0 6H4V9h2m0 6H4v-2h2m0 6H4v-2h2m6-10V3H2v18h20V7z&quot; style=&quot;font-size: 40px;&quot;&gt;&lt;/path&gt;&lt;/svg&gt;" style="text;whiteSpace=wrap;html=1;fontSize=40;align=center;verticalAlign=bottom;fillColor=none;fontColor=#273469;" vertex="1" parent="1">
                    <mxGeometry x="490" y="240" width="40" height="60" as="geometry"/>
                </mxCell>
                <mxCell id="9" value="" style="group" vertex="1" connectable="0" parent="1">
                    <mxGeometry x="348" y="240" width="150" height="120" as="geometry"/>
                </mxCell>
                <mxCell id="7" value="" style="ellipse;whiteSpace=wrap;html=1;fontSize=40;strokeColor=none;fillColor=#bac8d3;" vertex="1" parent="9">
                    <mxGeometry y="20" width="132" height="100" as="geometry"/>
                </mxCell>
                <mxCell id="3" value="&lt;svg xmlns=&quot;http://www.w3.org/2000/svg&quot; width=&quot;1em&quot; height=&quot;1em&quot; viewBox=&quot;0 0 24 24&quot;&gt;&lt;path fill=&quot;currentColor&quot; d=&quot;M21 10h-2V4h1V2H4v2h1v6H3a1 1 0 0 0-1 1v9h20v-9a1 1 0 0 0-1-1m-7 8v-4h-4v4H7V4h10v14z&quot;&gt;&lt;/path&gt;&lt;path fill=&quot;currentColor&quot; d=&quot;M9 6h2v2H9zm4 0h2v2h-2zm-4 4h2v2H9zm4 0h2v2h-2z&quot;&gt;&lt;/path&gt;&lt;/svg&gt;" style="text;whiteSpace=wrap;html=1;fontSize=40;align=center;verticalAlign=bottom;fillColor=none;fontColor=#273469;" vertex="1" parent="9">
                    <mxGeometry x="44" width="44" height="60" as="geometry"/>
                </mxCell>
                <mxCell id="4" value="&lt;svg xmlns=&quot;http://www.w3.org/2000/svg&quot; width=&quot;1em&quot; height=&quot;1em&quot; viewBox=&quot;0 0 24 24&quot;&gt;&lt;path fill=&quot;currentColor&quot; d=&quot;M12 4a4 4 0 0 1 4 4a4 4 0 0 1-4 4a4 4 0 0 1-4-4a4 4 0 0 1 4-4m0 10c4.42 0 8 1.79 8 4v2H4v-2c0-2.21 3.58-4 8-4&quot;&gt;&lt;/path&gt;&lt;/svg&gt;" style="text;whiteSpace=wrap;html=1;fontSize=40;align=center;verticalAlign=bottom;fillColor=none;fontColor=#273469;" vertex="1" parent="9">
                    <mxGeometry x="36" y="35" width="60" height="60" as="geometry"/>
                </mxCell>
                <mxCell id="5" value="&lt;svg xmlns=&quot;http://www.w3.org/2000/svg&quot; width=&quot;1em&quot; height=&quot;1em&quot; viewBox=&quot;0 0 24 24&quot;&gt;&lt;path fill=&quot;currentColor&quot; d=&quot;M12 4a4 4 0 0 1 4 4a4 4 0 0 1-4 4a4 4 0 0 1-4-4a4 4 0 0 1 4-4m0 10c4.42 0 8 1.79 8 4v2H4v-2c0-2.21 3.58-4 8-4&quot;&gt;&lt;/path&gt;&lt;/svg&gt;" style="text;whiteSpace=wrap;html=1;fontSize=40;align=center;verticalAlign=bottom;fillColor=none;fontColor=#273469;" vertex="1" parent="9">
                    <mxGeometry x="66" y="50" width="60" height="60" as="geometry"/>
                </mxCell>
                <mxCell id="6" value="&lt;svg xmlns=&quot;http://www.w3.org/2000/svg&quot; width=&quot;1em&quot; height=&quot;1em&quot; viewBox=&quot;0 0 24 24&quot;&gt;&lt;path fill=&quot;currentColor&quot; d=&quot;M12 4a4 4 0 0 1 4 4a4 4 0 0 1-4 4a4 4 0 0 1-4-4a4 4 0 0 1 4-4m0 10c4.42 0 8 1.79 8 4v2H4v-2c0-2.21 3.58-4 8-4&quot;&gt;&lt;/path&gt;&lt;/svg&gt;" style="text;whiteSpace=wrap;html=1;fontSize=40;align=center;verticalAlign=bottom;fillColor=none;fontColor=#273469;" vertex="1" parent="9">
                    <mxGeometry x="6" y="50" width="60" height="60" as="geometry"/>
                </mxCell>
                <mxCell id="21" value="契約" style="text;html=1;strokeColor=none;fillColor=none;align=center;verticalAlign=middle;whiteSpace=wrap;rounded=0;fontSize=8;fontColor=#273469;fontFamily=Noto Sans JP Black;fontStyle=1;horizontal=1;labelBackgroundColor=none;labelBorderColor=none;fontSource=https%3A%2F%2Ffonts.googleapis.com%2Fcss%3Ffamily%3DNoto%2BSans%2BJP%2BBlack;" vertex="1" parent="9">
                    <mxGeometry x="88" y="10" width="54" height="20" as="geometry"/>
                </mxCell>
                <mxCell id="23" value="交流" style="text;html=1;strokeColor=none;fillColor=none;align=center;verticalAlign=middle;whiteSpace=wrap;rounded=0;fontSize=8;fontColor=#273469;fontFamily=Noto Sans JP Black;fontStyle=1;horizontal=1;labelBackgroundColor=none;labelBorderColor=none;fontSource=https%3A%2F%2Ffonts.googleapis.com%2Fcss%3Ffamily%3DNoto%2BSans%2BJP%2BBlack;" vertex="1" parent="9">
                    <mxGeometry x="39" y="90" width="54" height="20" as="geometry"/>
                </mxCell>
                <mxCell id="10" value="" style="group;fontFamily=Noto Sans JP Black;fontSource=https%3A%2F%2Ffonts.googleapis.com%2Fcss%3Ffamily%3DNoto%2BSans%2BJP%2BBlack;" vertex="1" connectable="0" parent="1">
                    <mxGeometry x="540" y="240" width="132" height="120" as="geometry"/>
                </mxCell>
                <mxCell id="11" value="" style="ellipse;whiteSpace=wrap;html=1;fontSize=40;strokeColor=none;fillColor=#bac8d3;" vertex="1" parent="10">
                    <mxGeometry y="20" width="132" height="100" as="geometry"/>
                </mxCell>
                <mxCell id="12" value="&lt;svg xmlns=&quot;http://www.w3.org/2000/svg&quot; width=&quot;1em&quot; height=&quot;1em&quot; viewBox=&quot;0 0 24 24&quot;&gt;&lt;path fill=&quot;currentColor&quot; d=&quot;M21 10h-2V4h1V2H4v2h1v6H3a1 1 0 0 0-1 1v9h20v-9a1 1 0 0 0-1-1m-7 8v-4h-4v4H7V4h10v14z&quot;&gt;&lt;/path&gt;&lt;path fill=&quot;currentColor&quot; d=&quot;M9 6h2v2H9zm4 0h2v2h-2zm-4 4h2v2H9zm4 0h2v2h-2z&quot;&gt;&lt;/path&gt;&lt;/svg&gt;" style="text;whiteSpace=wrap;html=1;fontSize=40;align=center;verticalAlign=bottom;fillColor=none;fontColor=#273469;" vertex="1" parent="10">
                    <mxGeometry x="43" width="46" height="60" as="geometry"/>
                </mxCell>
                <mxCell id="13" value="&lt;svg xmlns=&quot;http://www.w3.org/2000/svg&quot; width=&quot;1em&quot; height=&quot;1em&quot; viewBox=&quot;0 0 24 24&quot;&gt;&lt;path fill=&quot;currentColor&quot; d=&quot;M12 4a4 4 0 0 1 4 4a4 4 0 0 1-4 4a4 4 0 0 1-4-4a4 4 0 0 1 4-4m0 10c4.42 0 8 1.79 8 4v2H4v-2c0-2.21 3.58-4 8-4&quot;&gt;&lt;/path&gt;&lt;/svg&gt;" style="text;whiteSpace=wrap;html=1;fontSize=40;align=center;verticalAlign=bottom;fillColor=none;fontColor=#273469;" vertex="1" parent="10">
                    <mxGeometry x="36" y="35" width="60" height="60" as="geometry"/>
                </mxCell>
                <mxCell id="14" value="&lt;svg xmlns=&quot;http://www.w3.org/2000/svg&quot; width=&quot;1em&quot; height=&quot;1em&quot; viewBox=&quot;0 0 24 24&quot;&gt;&lt;path fill=&quot;currentColor&quot; d=&quot;M12 4a4 4 0 0 1 4 4a4 4 0 0 1-4 4a4 4 0 0 1-4-4a4 4 0 0 1 4-4m0 10c4.42 0 8 1.79 8 4v2H4v-2c0-2.21 3.58-4 8-4&quot;&gt;&lt;/path&gt;&lt;/svg&gt;" style="text;whiteSpace=wrap;html=1;fontSize=40;align=center;verticalAlign=bottom;fillColor=none;fontColor=#273469;" vertex="1" parent="10">
                    <mxGeometry x="66" y="50" width="60" height="60" as="geometry"/>
                </mxCell>
                <mxCell id="15" value="&lt;svg xmlns=&quot;http://www.w3.org/2000/svg&quot; width=&quot;1em&quot; height=&quot;1em&quot; viewBox=&quot;0 0 24 24&quot;&gt;&lt;path fill=&quot;currentColor&quot; d=&quot;M12 4a4 4 0 0 1 4 4a4 4 0 0 1-4 4a4 4 0 0 1-4-4a4 4 0 0 1 4-4m0 10c4.42 0 8 1.79 8 4v2H4v-2c0-2.21 3.58-4 8-4&quot;&gt;&lt;/path&gt;&lt;/svg&gt;" style="text;whiteSpace=wrap;html=1;fontSize=40;align=center;verticalAlign=bottom;fillColor=none;fontColor=#273469;" vertex="1" parent="10">
                    <mxGeometry x="6" y="50" width="60" height="60" as="geometry"/>
                </mxCell>
                <mxCell id="22" value="契約" style="text;html=1;strokeColor=none;fillColor=none;align=center;verticalAlign=middle;whiteSpace=wrap;rounded=0;fontSize=8;fontColor=#273469;fontFamily=Noto Sans JP Black;fontStyle=1;horizontal=1;labelBackgroundColor=none;labelBorderColor=none;fontSource=https%3A%2F%2Ffonts.googleapis.com%2Fcss%3Ffamily%3DNoto%2BSans%2BJP%2BBlack;" vertex="1" parent="10">
                    <mxGeometry x="-11" y="10" width="54" height="20" as="geometry"/>
                </mxCell>
                <mxCell id="24" value="交流" style="text;html=1;strokeColor=none;fillColor=none;align=center;verticalAlign=middle;whiteSpace=wrap;rounded=0;fontSize=8;fontColor=#273469;fontFamily=Noto Sans JP Black;fontStyle=1;horizontal=1;labelBackgroundColor=none;labelBorderColor=none;fontSource=https%3A%2F%2Ffonts.googleapis.com%2Fcss%3Ffamily%3DNoto%2BSans%2BJP%2BBlack;" vertex="1" parent="10">
                    <mxGeometry x="39" y="90" width="54" height="20" as="geometry"/>
                </mxCell>
                <mxCell id="17" value="ツナグ" style="text;html=1;strokeColor=none;fillColor=none;align=center;verticalAlign=middle;whiteSpace=wrap;rounded=0;fontSize=12;fontColor=#273469;fontFamily=Noto Sans JP Black;fontStyle=1;horizontal=1;labelBackgroundColor=none;labelBorderColor=none;fontSource=https%3A%2F%2Ffonts.googleapis.com%2Fcss%3Ffamily%3DNoto%2BSans%2BJP%2BBlack;" vertex="1" parent="1">
                    <mxGeometry x="485" y="226" width="50" height="30" as="geometry"/>
                </mxCell>
                <mxCell id="18" value="" style="endArrow=block;startArrow=block;html=1;fontFamily=Helvetica;fontSize=10;fontColor=#273469;strokeColor=#273469;startFill=1;endFill=1;strokeWidth=4;sourcePerimeterSpacing=0;endSize=1;startSize=1;exitX=1;exitY=0.5;exitDx=0;exitDy=0;" edge="1" parent="1" source="3" target="2">
                    <mxGeometry width="50" height="50" relative="1" as="geometry">
                        <mxPoint x="480" y="340" as="sourcePoint"/>
                        <mxPoint x="530" y="290" as="targetPoint"/>
                    </mxGeometry>
                </mxCell>
                <mxCell id="19" value="" style="endArrow=block;startArrow=block;html=1;fontFamily=Helvetica;fontSize=10;fontColor=#273469;strokeColor=#273469;startFill=1;endFill=1;strokeWidth=4;sourcePerimeterSpacing=0;endSize=1;startSize=1;entryX=0;entryY=0.5;entryDx=0;entryDy=0;exitX=1;exitY=0.5;exitDx=0;exitDy=0;" edge="1" parent="1" source="2" target="12">
                    <mxGeometry width="50" height="50" relative="1" as="geometry">
                        <mxPoint x="540" y="270" as="sourcePoint"/>
                        <mxPoint x="576.0000000000001" y="269.86" as="targetPoint"/>
                    </mxGeometry>
                </mxCell>
                <mxCell id="27" style="edgeStyle=none;html=1;entryX=0.233;entryY=0.833;entryDx=0;entryDy=0;strokeColor=#273469;strokeWidth=4;fontFamily=Noto Sans JP Black;fontSource=https%3A%2F%2Ffonts.googleapis.com%2Fcss%3Ffamily%3DNoto%2BSans%2BJP%2BBlack;fontSize=8;fontColor=#FFFFFF;startArrow=none;startFill=0;endArrow=block;endFill=1;startSize=0;endSize=0;sourcePerimeterSpacing=-2;targetPerimeterSpacing=0;exitX=0.974;exitY=0.528;exitDx=0;exitDy=0;entryPerimeter=0;exitPerimeter=0;" edge="1" parent="1" source="25" target="15">
                    <mxGeometry relative="1" as="geometry"/>
                </mxCell>
                <mxCell id="28" style="edgeStyle=none;html=1;strokeColor=#273469;strokeWidth=4;fontFamily=Noto Sans JP Black;fontSource=https%3A%2F%2Ffonts.googleapis.com%2Fcss%3Ffamily%3DNoto%2BSans%2BJP%2BBlack;fontSize=8;fontColor=#FFFFFF;startArrow=none;startFill=0;endArrow=block;endFill=1;startSize=1;endSize=0;sourcePerimeterSpacing=0;targetPerimeterSpacing=0;entryX=0.767;entryY=0.833;entryDx=0;entryDy=0;entryPerimeter=0;exitX=0.021;exitY=0.509;exitDx=0;exitDy=0;jumpSize=5;jumpStyle=none;exitPerimeter=0;" edge="1" parent="1" source="25" target="5">
                    <mxGeometry relative="1" as="geometry">
                        <mxPoint x="470" y="340" as="targetPoint"/>
                    </mxGeometry>
                </mxCell>
                <mxCell id="25" value="団体外との&lt;br&gt;交流" style="ellipse;whiteSpace=wrap;html=1;labelBackgroundColor=none;labelBorderColor=none;fontFamily=Noto Sans JP Black;fontSource=https%3A%2F%2Ffonts.googleapis.com%2Fcss%3Ffamily%3DNoto%2BSans%2BJP%2BBlack;fontSize=8;fontColor=#FFFFFF;fillColor=#273469;strokeColor=none;fontStyle=1" vertex="1" parent="1">
                    <mxGeometry x="482.5" y="330" width="55" height="40" as="geometry"/>
                </mxCell>
            </root>
        </mxGraphModel>
    </diagram>
</mxfile>